<?xml version="1.0" encoding="UTF-8"?>
<svg width="360" height="720" viewBox="0 0 360 720" fill="none" xmlns="http://www.w3.org/2000/svg" role="img" aria-labelledby="title">
  <title id="title">App screen mockup – Checkout</title>
  <rect x="10" y="10" width="340" height="700" rx="36" fill="#111827"/>
  <rect x="20" y="20" width="320" height="680" rx="28" fill="#ffffff"/>
  <rect x="50" y="42" width="260" height="12" rx="6" fill="#e5e7eb"/>
  <rect x="30" y="74" width="300" height="44" rx="12" fill="#f0fdf4"/>
  <rect x="30" y="140" width="300" height="160" rx="16" fill="#f9fafb"/>
  <rect x="44" y="160" width="200" height="16" rx="8" fill="#9ca3af"/>
  <rect x="44" y="186" width="220" height="12" rx="6" fill="#d1d5db"/>
  <rect x="44" y="208" width="150" height="12" rx="6" fill="#d1d5db"/>
  <rect x="30" y="320" width="300" height="160" rx="16" fill="#f9fafb"/>
  <rect x="44" y="340" width="200" height="16" rx="8" fill="#9ca3af"/>
  <rect x="44" y="366" width="220" height="12" rx="6" fill="#d1d5db"/>
  <rect x="44" y="388" width="150" height="12" rx="6" fill="#d1d5db"/>
  <rect x="30" y="540" width="180" height="18" rx="9" fill="#111827"/>
  <rect x="220" y="540" width="110" height="18" rx="9" fill="#27AE60"/>
</svg>